<?xml version="1.0" encoding="UTF-8"?>
<!DOCTYPE svg PUBLIC "-//W3C//DTD SVG 1.1//EN" "http://www.w3.org/Graphics/SVG/1.1/DTD/svg11.dtd">
<!-- Creator: CorelDRAW X7 -->
<svg xmlns="http://www.w3.org/2000/svg" xml:space="preserve" width="2.54mm" height="2.54mm" version="1.1" style="shape-rendering:geometricPrecision; text-rendering:geometricPrecision; image-rendering:optimizeQuality; fill-rule:evenodd; clip-rule:evenodd"
viewBox="0 0 2540 2540"
 xmlns:xlink="http://www.w3.org/1999/xlink">
 <defs>
  <style type="text/css">
   <![CDATA[
    .fil0 {fill:#414B4C}
   ]]>
  </style>
 </defs>
 <g id="Слой_x0020_3">
  <metadata id="CorelCorpID_0Corel-Layer"/>
  <path class="fil0" d="M167 1620l1017 -1017c25,-25 56,-37 87,-37 38,0 69,12 88,37l1017 1004c49,50 49,125 0,175 -25,25 -57,37 -88,37 -31,0 -68,-12 -87,-37l-805 -792c-128,-169 -249,0 -249,0l-805 805c-25,24 -56,37 -87,37 -32,0 -63,-13 -88,-37 -50,-50 -50,-125 0,-175z"/>
 </g>
</svg>
