<?xml version="1.0" encoding="UTF-8"?>
<!DOCTYPE svg PUBLIC "-//W3C//DTD SVG 1.1//EN" "http://www.w3.org/Graphics/SVG/1.1/DTD/svg11.dtd">
<!-- Creator: CorelDRAW X7 -->
<svg xmlns="http://www.w3.org/2000/svg" xml:space="preserve" width="2.54mm" height="2.54mm" version="1.1" style="shape-rendering:geometricPrecision; text-rendering:geometricPrecision; image-rendering:optimizeQuality; fill-rule:evenodd; clip-rule:evenodd"
viewBox="0 0 2540 2540"
 xmlns:xlink="http://www.w3.org/1999/xlink">
 <defs>
  <style type="text/css">
   <![CDATA[
    .fil0 {fill:#414B4C}
   ]]>
  </style>
 </defs>
 <g id="Слой_x0020_3">
  <metadata id="CorelCorpID_0Corel-Layer"/>
  <path class="fil0" d="M577 1011l699 -812c20,-20 45,-30 70,-30 29,0 54,10 69,30l699 802c40,40 40,100 0,140 -20,20 -45,30 -70,30 -25,0 -55,-10 -70,-30l-529 -633 0 1819c0,55 -45,100 -99,100 -55,0 -100,-45 -100,-100l0 -1819 -529 643c-20,20 -45,30 -70,30 -25,0 -50,-10 -70,-30 -40,-40 -40,-100 0,-140z"/>
 </g>
</svg>
