<?xml version="1.0" encoding="UTF-8"?>
<!DOCTYPE svg PUBLIC "-//W3C//DTD SVG 1.1//EN" "http://www.w3.org/Graphics/SVG/1.1/DTD/svg11.dtd">
<!-- Creator: CorelDRAW X7 -->
<svg xmlns="http://www.w3.org/2000/svg" xml:space="preserve" width="2.54mm" height="2.54mm" version="1.1" style="shape-rendering:geometricPrecision; text-rendering:geometricPrecision; image-rendering:optimizeQuality; fill-rule:evenodd; clip-rule:evenodd"
viewBox="0 0 2540 2540"
 xmlns:xlink="http://www.w3.org/1999/xlink"
 enable-background="new 0 0 48 48">
 <defs>
  <style type="text/css">
   <![CDATA[
    .fil0 {fill:#414B4C}
   ]]>
  </style>
 </defs>
 <g id="Слой_x0020_3">
  <metadata id="CorelCorpID_0Corel-Layer"/>
  <g id="_832058848">
   <path class="fil0" d="M2161 2411l0 0c0,28 -22,50 -50,50l-1398 0 0 0c-138,0 -250,-112 -250,-250l0 -1798c0,-137 112,-249 250,-249l0 0 1298 0 0 0c21,0 39,12 46,30 3,6 4,13 4,20l0 0 0 349 0 0 50 0 0 0c14,0 27,6 36,15 9,9 14,21 14,35 0,0 0,0 0,0l0 1798zm-1598 -200l0 0 0 0c0,83 67,150 150,150l150 0 0 -1698 -150 0 0 0c-56,0 -108,-19 -150,-51l0 1599zm1398 -1648l0 -299 -1248 0 0 0 0 0c-83,0 -150,67 -150,149 0,83 67,150 150,150l1248 0 0 0zm100 100l-1098 0 0 1698 1098 0 0 -1698zm-1348 -200c-28,0 -50,-22 -50,-50 0,-27 22,-50 50,-50l1099 0c27,0 50,23 50,50 0,28 -23,50 -50,50l-1099 0z"/>
  </g>
 </g>
</svg>
