<?xml version="1.0" encoding="UTF-8"?>
<!DOCTYPE svg PUBLIC "-//W3C//DTD SVG 1.1//EN" "http://www.w3.org/Graphics/SVG/1.1/DTD/svg11.dtd">
<!-- Creator: CorelDRAW X7 -->
<svg xmlns="http://www.w3.org/2000/svg" xml:space="preserve" width="2.54mm" height="2.54mm" version="1.1" style="shape-rendering:geometricPrecision; text-rendering:geometricPrecision; image-rendering:optimizeQuality; fill-rule:evenodd; clip-rule:evenodd"
viewBox="0 0 2540 2540"
 xmlns:xlink="http://www.w3.org/1999/xlink">
 <defs>
  <style type="text/css">
   <![CDATA[
    .fil0 {fill:#414B4C}
    .fil1 {fill:#9BC53D}
   ]]>
  </style>
 </defs>
 <g id="Слой_x0020_3">
  <metadata id="CorelCorpID_0Corel-Layer"/>
  <path class="fil0" d="M2245 467c-79,-79 -209,-79 -288,0l-921 1191 -582 -584c-79,-79 -210,-79 -289,0 -79,79 -79,209 0,288l728 728c40,40 91,58 145,58 54,0 105,-20 146,-58l1066 -1337c77,-77 77,-207 -5,-286zm-36 253l-1064 1334c-28,28 -66,46 -107,46 -41,0 -79,-15 -107,-46l-730 -727c-28,-28 -46,-67 -46,-108 0,-40 15,-79 46,-107 28,-28 66,-46 107,-46 41,0 79,16 107,46l621 618 956 -1227c28,-28 67,-46 108,-46 40,0 79,15 107,46 28,28 46,66 46,107 0,41 -13,79 -44,110z"/>
  <path class="fil1" d="M2209 720l-1064 1334c-28,28 -66,46 -107,46 -41,0 -79,-15 -107,-46l-730 -727c-28,-28 -46,-67 -46,-108 0,-40 15,-79 46,-107 28,-28 66,-46 107,-46 41,0 79,16 107,46l621 618 956 -1227c28,-28 67,-46 108,-46 40,0 79,15 107,46 28,28 46,66 46,107 0,41 -13,79 -44,110z"/>
 </g>
</svg>
