<?xml version="1.0" encoding="UTF-8"?>
<!DOCTYPE svg PUBLIC "-//W3C//DTD SVG 1.1//EN" "http://www.w3.org/Graphics/SVG/1.1/DTD/svg11.dtd">
<!-- Creator: CorelDRAW X7 -->
<svg xmlns="http://www.w3.org/2000/svg" xml:space="preserve" width="2.54mm" height="2.54mm" version="1.1" style="shape-rendering:geometricPrecision; text-rendering:geometricPrecision; image-rendering:optimizeQuality; fill-rule:evenodd; clip-rule:evenodd"
viewBox="0 0 2540 2540"
 xmlns:xlink="http://www.w3.org/1999/xlink">
 <defs>
  <style type="text/css">
   <![CDATA[
    .fil0 {fill:#414B4C}
   ]]>
  </style>
 </defs>
 <g id="Слой_x0020_3">
  <metadata id="CorelCorpID_0Corel-Layer"/>
  <path class="fil0" d="M2366 2395c-13,0 -25,-4 -34,-13l-2220 -2158c-18,-18 -18,-48 0,-66 19,-18 49,-18 68,0l2219 2158c19,18 19,48 0,66 -9,9 -21,13 -33,13z"/>
  <path class="fil0" d="M146 2395c-12,0 -25,-4 -34,-13 -19,-18 -19,-48 0,-66l2220 -2158c18,-18 49,-18 67,0 19,18 19,48 0,66l-2219 2158c-10,9 -22,13 -34,13z"/>
 </g>
</svg>
