<?xml version="1.0" encoding="UTF-8"?>
<!DOCTYPE svg PUBLIC "-//W3C//DTD SVG 1.1//EN" "http://www.w3.org/Graphics/SVG/1.1/DTD/svg11.dtd">
<!-- Creator: CorelDRAW X7 -->
<svg xmlns="http://www.w3.org/2000/svg" xml:space="preserve" width="2.54mm" height="2.54mm" version="1.1" style="shape-rendering:geometricPrecision; text-rendering:geometricPrecision; image-rendering:optimizeQuality; fill-rule:evenodd; clip-rule:evenodd"
viewBox="0 0 2540 2540"
 xmlns:xlink="http://www.w3.org/1999/xlink">
 <defs>
  <style type="text/css">
   <![CDATA[
    .fil0 {fill:#414B4C}
   ]]>
  </style>
 </defs>
 <g id="Слой_x0020_3">
  <metadata id="CorelCorpID_0Corel-Layer"/>
  <path class="fil0" d="M1959 2419l-1298 0c-111,0 -200,-90 -200,-200l0 -1898c0,-110 89,-200 200,-200l947 0c0,0 1,0 1,0l1 0 0 0c16,0 29,8 38,20l491 491c12,9 20,23 20,39l0 0 0 1c0,0 0,0 0,0l0 1547c0,110 -89,200 -200,200zm-299 -2129l0 331 330 0 -330 -331zm399 431l-449 0c-28,0 -50,-23 -50,-50l0 -450 -899 0c-56,0 -100,45 -100,100l0 1898c0,55 44,100 100,100l1298 0c55,0 100,-45 100,-100l0 -1498zm-300 1298l-899 0c-27,0 -50,-22 -50,-50 0,-27 23,-50 50,-50l899 0c28,0 50,23 50,50 0,28 -22,50 -50,50zm0 -399l-899 0c-27,0 -50,-23 -50,-50 0,-28 23,-50 50,-50l899 0c28,0 50,22 50,50 0,27 -22,50 -50,50zm0 -400l-899 0c-27,0 -50,-22 -50,-50 0,-27 23,-50 50,-50l899 0c28,0 50,23 50,50 0,28 -22,50 -50,50z"/>
 </g>
</svg>
