<?xml version="1.0" encoding="UTF-8"?>
<!DOCTYPE svg PUBLIC "-//W3C//DTD SVG 1.1//EN" "http://www.w3.org/Graphics/SVG/1.1/DTD/svg11.dtd">
<!-- Creator: CorelDRAW X7 -->
<svg xmlns="http://www.w3.org/2000/svg" xml:space="preserve" width="2.54mm" height="2.54mm" version="1.1" style="shape-rendering:geometricPrecision; text-rendering:geometricPrecision; image-rendering:optimizeQuality; fill-rule:evenodd; clip-rule:evenodd"
viewBox="0 0 2540 2540"
 xmlns:xlink="http://www.w3.org/1999/xlink">
 <defs>
  <style type="text/css">
   <![CDATA[
    .fil0 {fill:#414B4C}
   ]]>
  </style>
 </defs>
 <g id="Слой_x0020_1">
  <metadata id="CorelCorpID_0Corel-Layer"/>
  <path class="fil0" d="M2386 458c0,-24 -10,-44 -29,-58 0,0 0,0 0,0l-255 -255c0,0 0,0 0,0 -15,-15 -40,-25 -64,-30l-240 -14c-30,0 -54,9 -74,24 0,0 0,0 0,0l-1247 1189c-39,39 -61,70 -22,109 38,38 49,49 92,6l1240 -1227 207 9 291 292 10 207 -1207 1214c-39,39 -63,73 -24,112 32,26 50,46 94,3l1213 -1267c20,-19 30,-49 30,-73 0,0 0,0 0,0l-15 -241z"/>
  <path class="fil0" d="M851 1704l1172 -1172c20,-20 20,-49 0,-69 -19,-19 -49,-19 -68,0l-1172 1172c-20,20 -20,49 0,69 9,10 24,15 34,15 10,0 24,-5 34,-15z"/>
  <path class="fil0" d="M871 2085l-329 81 -219 -205 88 -340c15,-54 25,-108 -28,-118 -54,-15 -86,20 -96,73l-157 672c-14,54 20,108 74,118 10,0 15,5 25,5 9,0 14,0 24,-5 0,0 0,0 0,0l672 -157c54,-15 83,-41 73,-95 -19,-54 -73,-38 -127,-29z"/>
 </g>
</svg>
