<?xml version="1.0" encoding="UTF-8"?>
<!DOCTYPE svg PUBLIC "-//W3C//DTD SVG 1.1//EN" "http://www.w3.org/Graphics/SVG/1.1/DTD/svg11.dtd">
<!-- Creator: CorelDRAW X7 -->
<svg xmlns="http://www.w3.org/2000/svg" xml:space="preserve" width="2.54mm" height="2.54mm" version="1.1" style="shape-rendering:geometricPrecision; text-rendering:geometricPrecision; image-rendering:optimizeQuality; fill-rule:evenodd; clip-rule:evenodd"
viewBox="0 0 2540 2540"
 xmlns:xlink="http://www.w3.org/1999/xlink">
 <defs>
  <style type="text/css">
   <![CDATA[
    .str0 {stroke:#414B4C;stroke-width:76.2}
    .fil1 {fill:#FEFEFE}
    .fil0 {fill:#414B4C}
    .fil2 {fill:#414B4C;fill-rule:nonzero}
   ]]>
  </style>
 </defs>
 <g id="Слой_x0020_3">
  <metadata id="CorelCorpID_0Corel-Layer"/>
  <path class="fil0" d="M1935 2413l-1280 0c-109,0 -197,-88 -197,-197l0 -1871c0,-109 88,-197 197,-197l934 0c0,0 0,0 0,0l1 0 0 0c16,0 30,8 39,20l484 484c11,9 19,22 19,38l0 0 0 1c0,0 0,0 0,0l0 1525c0,109 -88,197 -197,197zm-295 -2098l0 326 326 0 -326 -326zm394 424l-444 0c-27,0 -49,-22 -49,-49l0 -443 -886 0c-54,0 -99,44 -99,98l0 1871c0,54 45,99 99,99l1280 0c54,0 99,-45 99,-99l0 -1477zm-247 1231c0,242 0,-242 0,0zm0 -394c0,242 0,-242 0,0zm0 -394c0,242 0,-242 0,0z"/>
  <rect class="fil1 str0" x="254" y="1047" width="2031" height="961"/>
  <path class="fil2" d="M511 1824l229 -307 -201 -285 93 0 108 152c22,31 38,55 47,72 13,-21 29,-43 47,-66l118 -158 86 0 -206 281 222 311 -97 0 -149 -211c-8,-12 -17,-24 -24,-36 -13,20 -23,34 -29,42l-150 205 -94 0zm608 0l0 -592 79 0 0 523 291 0 0 69 -370 0zm438 -190l74 -7c3,30 11,54 24,74 13,19 33,34 59,46 27,12 58,18 91,18 30,0 56,-5 79,-14 23,-9 40,-21 51,-37 11,-15 17,-32 17,-50 0,-19 -5,-35 -16,-49 -11,-14 -29,-25 -53,-35 -16,-6 -51,-15 -106,-29 -54,-13 -92,-25 -114,-36 -28,-15 -49,-34 -63,-56 -14,-22 -21,-46 -21,-73 0,-30 9,-58 26,-84 17,-26 41,-46 74,-60 33,-13 69,-20 109,-20 43,0 82,7 116,21 33,14 59,35 77,63 18,27 28,58 29,93l-75 6c-4,-37 -18,-66 -41,-85 -23,-19 -58,-28 -103,-28 -48,0 -82,8 -104,26 -22,17 -33,38 -33,63 0,21 8,38 24,52 15,14 54,28 118,42 63,15 107,27 131,38 34,16 59,36 76,60 16,24 24,52 24,84 0,32 -9,61 -27,89 -18,28 -43,49 -77,65 -34,15 -72,23 -114,23 -54,0 -98,-8 -135,-23 -36,-16 -64,-39 -85,-71 -20,-31 -31,-67 -32,-106z"/>
 </g>
</svg>
