<?xml version="1.0" encoding="UTF-8"?>
<!DOCTYPE svg PUBLIC "-//W3C//DTD SVG 1.1//EN" "http://www.w3.org/Graphics/SVG/1.1/DTD/svg11.dtd">
<!-- Creator: CorelDRAW X7 -->
<svg xmlns="http://www.w3.org/2000/svg" xml:space="preserve" width="2.54mm" height="2.54mm" version="1.1" style="shape-rendering:geometricPrecision; text-rendering:geometricPrecision; image-rendering:optimizeQuality; fill-rule:evenodd; clip-rule:evenodd"
viewBox="0 0 2540 2540"
 xmlns:xlink="http://www.w3.org/1999/xlink"
 xmlns:sketch="http://www.bohemiancoding.com/sketch/ns">
 <defs>
  <style type="text/css">
   <![CDATA[
    .fil0 {fill:#414B4C}
   ]]>
  </style>
 </defs>
 <g id="Слой_x0020_3">
  <metadata id="CorelCorpID_0Corel-Layer"/>
  <g id="_830949392">
   <g id="miu">
    <g id="Artboard-1">
     <g id="slice">
     </g>
     <path id="circle-clock-time-history-recent-outline-stroke" class="fil0" d="M111 1272c0,-638 517,-1155 1155,-1155 637,0 1154,517 1154,1155 0,637 -517,1154 -1154,1154 -638,0 -1155,-517 -1155,-1154zm2209 0c0,-583 -472,-1055 -1054,-1055 -582,0 -1054,472 -1054,1055 0,582 472,1054 1054,1054 582,0 1054,-472 1054,-1054zm-553 -499l71 71 -568 568 -426 -426 71 -71 355 355 497 -497z"/>
    </g>
   </g>
  </g>
 </g>
</svg>
