<?xml version="1.0" encoding="UTF-8"?>
<!DOCTYPE svg PUBLIC "-//W3C//DTD SVG 1.1//EN" "http://www.w3.org/Graphics/SVG/1.1/DTD/svg11.dtd">
<!-- Creator: CorelDRAW X7 -->
<svg xmlns="http://www.w3.org/2000/svg" xml:space="preserve" width="2.54mm" height="2.54mm" version="1.1" style="shape-rendering:geometricPrecision; text-rendering:geometricPrecision; image-rendering:optimizeQuality; fill-rule:evenodd; clip-rule:evenodd"
viewBox="0 0 2540 2540"
 xmlns:xlink="http://www.w3.org/1999/xlink">
 <defs>
  <style type="text/css">
   <![CDATA[
    .fil0 {fill:#414B4C}
   ]]>
  </style>
 </defs>
 <g id="Слой_x0020_3">
  <metadata id="CorelCorpID_0Corel-Layer"/>
  <polygon class="fil0" points="2009,971 2009,2223 1581,2223 1581,1628 963,1628 963,2223 535,2223 535,971 440,1043 440,2318 1058,2318 1058,1723 1486,1723 1486,2318 2104,2318 2104,1043 "/>
  <path class="fil0" d="M2427 1216c-10,0 -20,-3 -28,-10l-1127 -854 -1126 854c-21,16 -51,12 -67,-9 -16,-21 -12,-50 9,-66l1184 -898 1184 898c21,16 25,46 9,66 -9,13 -23,19 -38,19z"/>
  <polygon class="fil0" points="1710,505 1710,267 2057,267 2057,768 2104,804 2104,220 1662,220 1662,469 "/>
 </g>
</svg>
