<?xml version="1.0" encoding="UTF-8"?>
<!DOCTYPE svg PUBLIC "-//W3C//DTD SVG 1.1//EN" "http://www.w3.org/Graphics/SVG/1.1/DTD/svg11.dtd">
<!-- Creator: CorelDRAW X7 -->
<svg xmlns="http://www.w3.org/2000/svg" xml:space="preserve" width="2.54mm" height="2.54mm" version="1.1" style="shape-rendering:geometricPrecision; text-rendering:geometricPrecision; image-rendering:optimizeQuality; fill-rule:evenodd; clip-rule:evenodd"
viewBox="0 0 2540 2540"
 xmlns:xlink="http://www.w3.org/1999/xlink">
 <defs>
  <style type="text/css">
   <![CDATA[
    .fil0 {fill:#414B4C}
   ]]>
  </style>
 </defs>
 <g id="Слой_x0020_3">
  <metadata id="CorelCorpID_0Corel-Layer"/>
  <path class="fil0" d="M1536 2053l-522 -449c-13,-13 -19,-29 -19,-45 0,-19 6,-35 19,-45l516 -449c26,-26 64,-26 90,0 12,13 19,29 19,45 0,16 -7,35 -19,45l-407 340 1169 0c35,0 64,29 64,64 0,35 -29,64 -64,64l-1169 0 413 340c13,13 19,29 19,45 0,16 -6,32 -19,45 -26,26 -64,26 -90,0z"/>
  <path class="fil0" d="M2043 655l-485 -485 -8 -9 -377 0c0,0 -424,0 -424,0l-454 0 0 2242 1757 0 0 -877 0 -138 0 -725 -9 -8zm-122 -9l-354 0 0 -354 354 354zm-836 -485l-248 0c0,0 248,0 248,0zm879 2154l-1581 0 0 -2066 702 0c0,0 88,0 88,0l334 0 0 427c0,17 13,30 30,30l427 0 0 682 0 141 0 786z"/>
 </g>
</svg>
