<?xml version="1.0" encoding="UTF-8"?>
<!DOCTYPE svg PUBLIC "-//W3C//DTD SVG 1.1//EN" "http://www.w3.org/Graphics/SVG/1.1/DTD/svg11.dtd">
<!-- Creator: CorelDRAW X7 -->
<svg xmlns="http://www.w3.org/2000/svg" xml:space="preserve" width="2.54mm" height="2.54mm" version="1.1" style="shape-rendering:geometricPrecision; text-rendering:geometricPrecision; image-rendering:optimizeQuality; fill-rule:evenodd; clip-rule:evenodd"
viewBox="0 0 2540 2540"
 xmlns:xlink="http://www.w3.org/1999/xlink"
 enable-background="new 0 0 48 48">
 <defs>
  <style type="text/css">
   <![CDATA[
    .str0 {stroke:#414B4C;stroke-width:84.7}
    .fil1 {fill:none}
    .fil0 {fill:#414B4C}
   ]]>
  </style>
 </defs>
 <g id="Слой_x0020_3">
  <metadata id="CorelCorpID_0Corel-Layer"/>
  <g id="_741486976">
   <path class="fil0" d="M1924 2455l-1340 0c-113,0 -206,-92 -206,-206l0 -1804c0,-113 93,-206 206,-206l155 0 0 0c29,0 52,23 52,52 0,28 -23,51 -52,51l0 0 -155 0c-56,0 -103,47 -103,103l0 1804c0,57 47,103 103,103l1340 0c57,0 103,-46 103,-103l0 -1804c0,-56 -46,-103 -103,-103l-154 0 0 0c-29,0 -52,-23 -52,-51 0,-29 23,-52 52,-52 0,0 0,0 0,0l154 0c114,0 207,93 207,206l0 1804c0,114 -93,206 -207,206zm-103 -1958c0,28 -23,52 -51,52l-1031 0c-28,0 -51,-24 -51,-52 0,-28 23,-52 51,-52 0,0 58,-6 103,-51l103 -103c0,0 40,-52 103,-52l52 0c0,-85 69,-154 154,-154 86,0 155,69 155,154l52 0c67,0 103,52 103,52l103 103c45,45 103,51 103,51 28,0 51,24 51,52zm-567 -309c-28,0 -51,23 -51,51l103 0c0,-28 -23,-51 -52,-51zm277 206c0,0 -35,-52 -94,-52l-365 0c-59,0 -94,52 -94,52l-47 51 647 0 -47 -51z"/>
  </g>
  <rect class="fil1 str0" x="655" y="930" width="332" height="316"/>
  <rect class="fil1 str0" x="663" y="1606" width="332" height="316"/>
  <rect class="fil0" x="1169" y="1065" width="640" height="121"/>
  <rect class="fil0" x="1172" y="1676" width="640" height="153"/>
 </g>
</svg>
