<?xml version="1.0" encoding="UTF-8"?>
<!DOCTYPE svg PUBLIC "-//W3C//DTD SVG 1.1//EN" "http://www.w3.org/Graphics/SVG/1.1/DTD/svg11.dtd">
<!-- Creator: CorelDRAW X7 -->
<svg xmlns="http://www.w3.org/2000/svg" xml:space="preserve" width="2.54mm" height="2.54mm" version="1.1" style="shape-rendering:geometricPrecision; text-rendering:geometricPrecision; image-rendering:optimizeQuality; fill-rule:evenodd; clip-rule:evenodd"
viewBox="0 0 2540 2540"
 xmlns:xlink="http://www.w3.org/1999/xlink"
 xmlns:sketch="http://www.bohemiancoding.com/sketch/ns">
 <defs>
  <style type="text/css">
   <![CDATA[
    .fil0 {fill:#2B2A29}
   ]]>
  </style>
 </defs>
 <g id="Слой_x0020_3">
  <metadata id="CorelCorpID_0Corel-Layer"/>
  <g id="_755115920">
   <g id="miu">
    <g id="Artboard-1">
     <g id="slice">
     </g>
     <path id="editor-list-view-hambuger-menu-glyph" class="fil0" d="M162 482c-29,0 -52,22 -52,52l0 104c0,29 22,53 52,53l2194 0c29,0 53,-23 53,-53l0 -104c0,-29 -23,-52 -53,-52l-2194 0zm0 522c-29,0 -52,23 -52,53l0 103c0,30 22,53 52,53l2194 0c29,0 53,-22 53,-53l0 -103c0,-29 -23,-53 -53,-53l-2194 0zm0 523c-29,0 -52,22 -52,52l0 104c0,29 22,53 52,53l2194 0c29,0 53,-23 53,-53l0 -104c0,-29 -23,-52 -53,-52l-2194 0z"/>
    </g>
   </g>
  </g>
 </g>
</svg>
