<?xml version="1.0" encoding="UTF-8"?>
<!DOCTYPE svg PUBLIC "-//W3C//DTD SVG 1.1//EN" "http://www.w3.org/Graphics/SVG/1.1/DTD/svg11.dtd">
<!-- Creator: CorelDRAW X7 -->
<svg xmlns="http://www.w3.org/2000/svg" xml:space="preserve" width="2.54mm" height="2.54mm" version="1.1" style="shape-rendering:geometricPrecision; text-rendering:geometricPrecision; image-rendering:optimizeQuality; fill-rule:evenodd; clip-rule:evenodd"
viewBox="0 0 2540 2540"
 xmlns:xlink="http://www.w3.org/1999/xlink"
 xmlns:sketch="http://www.bohemiancoding.com/sketch/ns">
 <defs>
  <style type="text/css">
   <![CDATA[
    .fil0 {fill:#414B4C}
   ]]>
  </style>
 </defs>
 <g id="Слой_x0020_3">
  <metadata id="CorelCorpID_0Corel-Layer"/>
  <g id="_751065952">
   <g id="Page-1">
    <g id="icon-73-documents">
     <path id="documents" class="fil0" d="M1738 1027l0 972 288 0c40,0 72,-32 72,-71l0 -1225 -288 0c-80,0 -144,-64 -144,-144l0 -360 -720 0c-40,0 -72,33 -72,72l0 216 0 0 396 0 36 0 432 504 0 36 0 0 0 0zm-936 -540l0 -215c0,-80 65,-145 144,-145l756 0 0 0 36 0 432 504 0 36 0 1261c0,78 -64,143 -144,143l-288 0 0 217c0,78 -64,143 -144,143l-1080 0c-80,0 -144,-65 -144,-144l0 -1655c0,-80 65,-145 144,-145l288 0 0 0 0 0zm936 -252l0 323c0,41 32,73 72,73l266 0 -338 -396 0 0zm-504 324l-720 0c-40,0 -72,33 -72,72l0 1656c0,40 33,72 72,72l1080 0c40,0 72,-32 72,-71l0 -1225 -288 0c-80,0 -144,-64 -144,-144l0 -360 0 0zm72 36l0 323c0,41 32,73 72,73l266 0 -338 -396 0 0z"/>
    </g>
   </g>
  </g>
  <rect class="fil0" x="549" y="1059" width="570" height="112" rx="18" ry="56"/>
  <rect class="fil0" x="547" y="1478" width="985" height="123" rx="30" ry="62"/>
  <rect class="fil0" x="555" y="1917" width="985" height="119" rx="30" ry="60"/>
 </g>
</svg>
