<?xml version="1.0" encoding="UTF-8"?>
<!DOCTYPE svg PUBLIC "-//W3C//DTD SVG 1.1//EN" "http://www.w3.org/Graphics/SVG/1.1/DTD/svg11.dtd">
<!-- Creator: CorelDRAW X7 -->
<svg xmlns="http://www.w3.org/2000/svg" xml:space="preserve" width="2.54mm" height="2.54mm" version="1.1" style="shape-rendering:geometricPrecision; text-rendering:geometricPrecision; image-rendering:optimizeQuality; fill-rule:evenodd; clip-rule:evenodd"
viewBox="0 0 2540 2540"
 xmlns:xlink="http://www.w3.org/1999/xlink">
 <defs>
  <style type="text/css">
   <![CDATA[
    .fil0 {fill:#414B4C}
   ]]>
  </style>
 </defs>
 <g id="Слой_x0020_3">
  <metadata id="CorelCorpID_0Corel-Layer"/>
  <path class="fil0" d="M1625 1776l-716 0c-13,0 -21,-9 -21,-22 0,-14 8,-22 21,-22l718 0c12,0 21,8 21,22 0,13 -11,22 -23,22zm0 175l-716 0c-13,0 -21,-8 -21,-22 0,-13 8,-22 21,-22l718 0c12,0 21,9 21,22 0,14 -11,22 -23,22zm0 176l-716 0c-13,0 -21,-9 -21,-22 0,-13 8,-22 21,-22l718 0c12,0 21,9 21,22 0,13 -11,22 -23,22zm196 -483l0 527c0,79 -59,154 -133,154l-836 0c-74,0 -133,-75 -133,-154l0 -527 -82 0 0 538c0,121 92,231 204,231l858 0c112,0 204,-110 204,-231l0 -538 -82 0zm-1102 -1099l0 -198c0,-79 59,-132 133,-132l836 0c74,0 133,53 133,132l0 198 82 0 0 -209c0,-121 -92,-209 -204,-209l-858 0c-112,0 -204,88 -204,209l0 209 82 0zm1245 1055l-1412 0c-13,0 -21,-9 -21,-22 0,-14 8,-22 21,-22l1412 0c12,0 20,8 20,22 0,13 -8,22 -20,22zm-486 -462c0,-36 -27,-66 -61,-66 -34,0 -61,30 -61,66 0,37 27,66 61,66 34,0 61,-29 61,-66zm266 0c0,-36 -28,-66 -62,-66 -34,0 -61,30 -61,66 0,37 27,66 61,66 34,0 62,-29 62,-66zm244 0c0,-36 -27,-66 -61,-66 -34,0 -61,30 -61,66 0,37 27,66 61,66 34,0 61,-29 61,-66zm241 -549l-1918 0c-113,0 -204,87 -204,208l0 902c0,121 91,230 204,230l285 0 0 -88 -285 0c-68,0 -123,-70 -123,-142l0 -902c0,-72 55,-121 123,-121l1918 0c68,0 123,49 123,121l0 902c0,72 -55,142 -123,142l-285 0 0 88 285 0c113,0 204,-109 204,-230l0 -902c0,-121 -91,-208 -204,-208z"/>
 </g>
</svg>
