<?xml version="1.0" encoding="UTF-8"?>
<!DOCTYPE svg PUBLIC "-//W3C//DTD SVG 1.1//EN" "http://www.w3.org/Graphics/SVG/1.1/DTD/svg11.dtd">
<!-- Creator: CorelDRAW X7 -->
<svg xmlns="http://www.w3.org/2000/svg" xml:space="preserve" width="2.54mm" height="2.54mm" version="1.1" style="shape-rendering:geometricPrecision; text-rendering:geometricPrecision; image-rendering:optimizeQuality; fill-rule:evenodd; clip-rule:evenodd"
viewBox="0 0 2540 2540"
 xmlns:xlink="http://www.w3.org/1999/xlink">
 <defs>
  <style type="text/css">
   <![CDATA[
    .fil0 {fill:#414B4C}
   ]]>
  </style>
 </defs>
 <g id="Слой_x0020_3">
  <metadata id="CorelCorpID_0Corel-Layer"/>
  <path class="fil0" d="M1446 1817c-8,22 3,46 25,54l347 129c-163,117 -355,178 -556,178 -527,0 -956,-429 -956,-956 0,-23 -18,-41 -41,-41 -23,0 -42,18 -42,41 0,573 466,1039 1039,1039 202,0 395,-57 562,-165l-64 302c-4,22 10,44 32,49 3,0 6,1 9,1 19,0 36,-14 40,-33l98 -458 -439 -164c-22,-8 -46,3 -54,24zm-168 -1538c-202,0 -395,57 -562,165l64 -301c5,-23 -10,-45 -32,-50 -22,-4 -45,10 -49,32l-97 459 438 163c5,2 10,3 15,3 17,0 32,-10 39,-27 8,-22 -3,-45 -25,-53l-347 -130c163,-116 355,-178 556,-178 527,0 956,429 956,956 0,23 18,41 41,41 23,0 42,-18 42,-41 0,-573 -466,-1039 -1039,-1039z"/>
 </g>
</svg>
