<?xml version="1.0" encoding="UTF-8"?>
<!DOCTYPE svg PUBLIC "-//W3C//DTD SVG 1.1//EN" "http://www.w3.org/Graphics/SVG/1.1/DTD/svg11.dtd">
<!-- Creator: CorelDRAW X7 -->
<svg xmlns="http://www.w3.org/2000/svg" xml:space="preserve" width="2.54mm" height="2.54mm" version="1.1" style="shape-rendering:geometricPrecision; text-rendering:geometricPrecision; image-rendering:optimizeQuality; fill-rule:evenodd; clip-rule:evenodd"
viewBox="0 0 2540 2540"
 xmlns:xlink="http://www.w3.org/1999/xlink">
 <defs>
  <style type="text/css">
   <![CDATA[
    .fil0 {fill:#414B4C}
   ]]>
  </style>
 </defs>
 <g id="Слой_x0020_3">
  <metadata id="CorelCorpID_0Corel-Layer"/>
  <path class="fil0" d="M2069 863l-433 -433 -8 -8 -336 0 0 -135c0,-104 -85,-189 -189,-189 -104,0 -189,85 -189,189l0 135 -406 0 0 2002 1569 0 0 -1553 -8 -8zm-109 -8l-316 0 0 -316 316 316zm-968 -543c0,-75 37,-136 111,-136 75,0 111,37 111,111l0 135 -222 0 0 -110zm1006 2033l-1411 0 0 -1844 627 0 0 516c0,105 -61,165 -165,165 -104,0 -165,-60 -165,-165l0 -351 -78 0 0 351c0,135 109,244 243,244 134,0 243,-109 243,-244l0 -516 298 0 0 381c0,15 12,27 27,27l381 0 0 1436z"/>
 </g>
</svg>
