<?xml version="1.0" encoding="UTF-8"?>
<!DOCTYPE svg PUBLIC "-//W3C//DTD SVG 1.1//EN" "http://www.w3.org/Graphics/SVG/1.1/DTD/svg11.dtd">
<!-- Creator: CorelDRAW X7 -->
<svg xmlns="http://www.w3.org/2000/svg" xml:space="preserve" width="2.54mm" height="2.54mm" version="1.1" style="shape-rendering:geometricPrecision; text-rendering:geometricPrecision; image-rendering:optimizeQuality; fill-rule:evenodd; clip-rule:evenodd"
viewBox="0 0 2540 2540"
 xmlns:xlink="http://www.w3.org/1999/xlink">
 <defs>
  <style type="text/css">
   <![CDATA[
    .fil0 {fill:#414B4C}
   ]]>
  </style>
 </defs>
 <g id="Слой_x0020_3">
  <metadata id="CorelCorpID_0Corel-Layer"/>
  <path class="fil0" d="M2183 127l-112 0 -988 0 -760 0c-74,0 -158,85 -158,158l0 1932c0,74 59,159 132,159l108 0 1765 0 85 0c73,0 158,-85 158,-159l0 -1834 -230 -256zm-188 102l0 378c0,45 -12,57 -57,57l-747 0c-45,0 -57,-12 -57,-57l0 -378 861 0zm-1514 2045l0 -1131c0,-45 11,-57 56,-57l1500 0c45,0 56,12 56,57l0 1131 -1612 0zm1830 -82c0,45 -36,82 -81,82l-60 0 0 -1131c0,-74 -60,-133 -133,-133l-1500 0c-73,0 -132,59 -132,133l0 1131 -82 0c-45,0 -57,-12 -57,-57l0 -1906c0,-46 37,-82 82,-82l710 0 0 378c0,74 59,133 133,133l747 0c74,0 133,-59 133,-133l0 -378 65 0 175 175 0 1788z"/>
  <rect class="fil0" x="1834" y="285" width="108" height="319"/>
  <rect class="fil0" x="685" y="1360" width="1207.54" height="75.9238"/>
  <rect class="fil0" x="685" y="1606" width="1207.54" height="74.8859"/>
  <rect class="fil0" x="685" y="1829" width="1207.54" height="79.4428"/>
 </g>
</svg>
