<?xml version="1.0" encoding="UTF-8"?>
<!DOCTYPE svg PUBLIC "-//W3C//DTD SVG 1.1//EN" "http://www.w3.org/Graphics/SVG/1.1/DTD/svg11.dtd">
<!-- Creator: CorelDRAW X7 -->
<svg xmlns="http://www.w3.org/2000/svg" xml:space="preserve" width="2.54mm" height="2.54mm" version="1.1" style="shape-rendering:geometricPrecision; text-rendering:geometricPrecision; image-rendering:optimizeQuality; fill-rule:evenodd; clip-rule:evenodd"
viewBox="0 0 2540 2540"
 xmlns:xlink="http://www.w3.org/1999/xlink">
 <defs>
  <style type="text/css">
   <![CDATA[
    .fil0 {fill:#414B4C}
   ]]>
  </style>
 </defs>
 <g id="Слой_x0020_2">
  <metadata id="CorelCorpID_0Corel-Layer"/>
  <path class="fil0" d="M2360 2113l-593 -593c-18,25 -38,47 -56,70l586 586c27,27 27,70 0,95 -13,13 -29,20 -47,20 -18,0 -36,-7 -47,-20l-587 -586c-22,20 -45,38 -70,56l593 593c32,31 73,47 113,47 41,0 81,-16 113,-47 56,-59 56,-158 -5,-221z"/>
  <path class="fil0" d="M1943 1004c0,-7 0,-16 0,-23 0,-9 0,-18 -2,-25 0,-11 -2,-22 -4,-33 0,-5 0,-9 -3,-12 0,0 0,0 0,0 -18,-133 -65,-266 -142,-381 0,0 0,0 0,0 -11,-16 -20,-31 -34,-45 0,0 0,0 -2,-2 -25,-32 -49,-61 -79,-90 -11,-12 -22,-21 -34,-32 -2,-2 -4,-4 -6,-7 -9,-6 -16,-13 -25,-20 -7,-7 -16,-13 -23,-18 0,0 0,0 -2,0 0,0 0,0 0,0 -151,-117 -343,-187 -548,-187 -496,0 -899,404 -899,900 0,495 403,899 899,899 496,0 907,-406 907,-904 0,-7 0,-14 -3,-20zm-897 832c-446,0 -809,-363 -809,-810 0,-446 363,-809 809,-809 187,0 361,65 498,171l0 0c2,2 2,2 5,5 76,61 144,137 194,223l0 0c33,56 58,115 76,176 0,0 0,0 0,0 30,97 41,196 32,295l0 0c-29,417 -379,749 -805,749z"/>
 </g>
</svg>
