<?xml version="1.0" encoding="UTF-8"?>
<!DOCTYPE svg PUBLIC "-//W3C//DTD SVG 1.1//EN" "http://www.w3.org/Graphics/SVG/1.1/DTD/svg11.dtd">
<!-- Creator: CorelDRAW X7 -->
<svg xmlns="http://www.w3.org/2000/svg" xml:space="preserve" width="2.54mm" height="2.54mm" version="1.1" style="shape-rendering:geometricPrecision; text-rendering:geometricPrecision; image-rendering:optimizeQuality; fill-rule:evenodd; clip-rule:evenodd"
viewBox="0 0 2540 2540"
 xmlns:xlink="http://www.w3.org/1999/xlink">
 <defs>
  <style type="text/css">
   <![CDATA[
    .str0 {stroke:#414B4C;stroke-width:84.7}
    .fil0 {fill:none}
   ]]>
  </style>
 </defs>
 <g id="Слой_x0020_3">
  <metadata id="CorelCorpID_0Corel-Layer"/>
  <path class="fil0 str0" d="M2159 1387c5,-37 8,-74 8,-111 0,-38 -3,-75 -8,-111l249 -188c22,-17 28,-48 14,-73l-235 -394c-15,-24 -45,-35 -72,-24l-292 114c-61,-45 -127,-83 -199,-112l-44 -302c-5,-26 -29,-47 -59,-47l-470 0c-29,0 -53,21 -58,48l-44 301c-72,29 -138,66 -198,112l-293 -114c-26,-10 -57,0 -72,24l-235 394c-14,25 -8,55 15,73l247 188c-4,36 -8,73 -8,111 0,37 4,74 8,111l-247 188c-23,17 -29,48 -15,73l235 394c15,24 46,34 72,24l293 -114c60,45 126,83 198,112l44 301c5,27 29,48 58,48l470 0c30,0 54,-21 58,-48l44 -301c72,-29 138,-67 199,-112l293 114c26,10 56,0 71,-24l235 -394c15,-25 8,-55 -14,-73l-248 -188 0 0zm-873 287c-227,0 -411,-178 -411,-398 0,-220 184,-398 411,-398 228,0 411,178 411,398 0,220 -183,398 -411,398z"/>
 </g>
</svg>
