<?xml version="1.0" encoding="UTF-8"?>
<!DOCTYPE svg PUBLIC "-//W3C//DTD SVG 1.1//EN" "http://www.w3.org/Graphics/SVG/1.1/DTD/svg11.dtd">
<!-- Creator: CorelDRAW X7 -->
<svg xmlns="http://www.w3.org/2000/svg" xml:space="preserve" width="2.54mm" height="2.54mm" version="1.1" style="shape-rendering:geometricPrecision; text-rendering:geometricPrecision; image-rendering:optimizeQuality; fill-rule:evenodd; clip-rule:evenodd"
viewBox="0 0 2540 2540"
 xmlns:xlink="http://www.w3.org/1999/xlink"
 xmlns:sketch="http://www.bohemiancoding.com/sketch/ns">
 <defs>
  <style type="text/css">
   <![CDATA[
    .fil0 {fill:#414B4C}
   ]]>
  </style>
 </defs>
 <g id="Слой_x0020_3">
  <metadata id="CorelCorpID_0Corel-Layer"/>
  <path class="fil0" d="M1171 105l542 466c13,13 20,30 20,46 0,20 -6,57 -19,67 0,0 -207,0 -207,0l-1212 0c-37,0 -67,-30 -67,-67 0,-36 30,-66 67,-66l1212 0 -429 -353c-13,-13 -20,-29 -20,-46 0,-17 7,-33 20,-47 27,-26 67,-26 93,0zm-347 1300l-541 -466c-13,-13 -20,-29 -20,-46 0,-20 5,-57 19,-67 0,0 207,1 207,1l1212 0c36,0 66,29 66,66 0,37 -30,66 -66,66l-1212 0 428 353c13,13 20,30 20,46 0,17 -7,34 -20,47 -26,26 -66,26 -93,0z"/>
  <g id="_827650528">
   <g id="miu">
    <g id="Artboard-1">
     <g id="slice">
     </g>
     <path id="map-brochure-outline-stroke" class="fil0" d="M1132 1463l0 1024 361 -301 0 -1024 -361 301zm60 29l0 867 241 -203 0 -864 -241 200zm361 616l0 78 361 301 0 -1024 -361 -301 0 78 301 250 0 868 -301 -250zm422 -627l0 -78 361 -301 0 1023 -361 301 0 -76 301 -252 0 -869 -301 252z"/>
    </g>
   </g>
  </g>
 </g>
</svg>
