<?xml version="1.0" encoding="UTF-8"?>
<!DOCTYPE svg PUBLIC "-//W3C//DTD SVG 1.1//EN" "http://www.w3.org/Graphics/SVG/1.1/DTD/svg11.dtd">
<!-- Creator: CorelDRAW X7 -->
<svg xmlns="http://www.w3.org/2000/svg" xml:space="preserve" width="2.54mm" height="2.54mm" version="1.1" style="shape-rendering:geometricPrecision; text-rendering:geometricPrecision; image-rendering:optimizeQuality; fill-rule:evenodd; clip-rule:evenodd"
viewBox="0 0 2540 2540"
 xmlns:xlink="http://www.w3.org/1999/xlink">
 <defs>
  <style type="text/css">
   <![CDATA[
    .fil0 {fill:#414B4C}
   ]]>
  </style>
 </defs>
 <g id="Слой_x0020_3">
  <metadata id="CorelCorpID_0Corel-Layer"/>
  <path class="fil0" d="M2173 730l0 -25c0,-129 -96,-234 -213,-234l-794 0c-71,0 -128,-75 -128,-152l0 12c0,-129 -96,-234 -213,-234l-527 0c-117,0 -213,105 -213,234l0 1799c0,128 96,234 213,234l0 0 1854 0c117,0 213,-105 213,-234l0 -1168c0,-122 -85,-220 -192,-232zm-1875 1540c-70,0 -128,-63 -128,-140l0 -1799c0,-77 58,-140 128,-140l527 0c70,0 128,63 128,140 0,128 96,233 213,233l794 0c70,0 128,63 128,141l0 23 -1449 0c-117,0 -213,105 -213,234l0 1168c0,77 -58,140 -128,140l0 0zm1982 -140c0,77 -58,140 -128,140l-1684 0c28,-40 43,-89 43,-140l0 -1168c0,-77 57,-141 128,-141l1513 0c70,0 128,64 128,141l0 1168z"/>
 </g>
</svg>
